<svg width="796" height="214" viewBox="0 0 796 214" fill="none" xmlns="http://www.w3.org/2000/svg">
<g clip-path="url(#clip0_17_111)">
<g filter="url(#filter0_d_17_111)">
<path d="M725.582 205.371C713.277 205.371 702.047 202.441 691.891 196.582C681.93 190.527 673.922 182.52 667.867 172.559C662.008 162.598 659.078 151.562 659.078 139.453C659.078 127.148 662.008 116.113 667.867 106.348C673.727 96.3867 681.637 88.4766 691.598 82.6172C701.754 76.7578 712.984 73.8281 725.289 73.8281C737.594 73.8281 748.727 76.7578 758.688 82.6172C768.844 88.4766 776.852 96.3867 782.711 106.348C788.766 116.309 791.793 127.344 791.793 139.453C791.793 151.562 788.863 162.598 783.004 172.559C777.145 182.52 769.234 190.527 759.273 196.582C749.312 202.441 738.082 205.371 725.582 205.371ZM728.512 191.602C734.762 191.602 740.035 189.551 744.332 185.449C748.629 181.348 751.949 175.879 754.293 169.043C756.637 162.012 757.809 154.492 757.809 146.484C757.809 135.938 756.344 126.27 753.414 117.48C750.68 108.496 746.578 101.27 741.109 95.8008C735.836 90.332 729.293 87.5977 721.48 87.5977C715.426 87.5977 710.152 89.6484 705.66 93.75C701.363 97.8516 698.043 103.32 695.699 110.156C693.551 116.992 692.477 124.512 692.477 132.715C692.477 143.262 693.844 153.027 696.578 162.012C699.508 170.801 703.707 177.93 709.176 183.398C714.645 188.867 721.09 191.602 728.512 191.602Z" fill="#F5F5F5"/>
</g>
<g filter="url(#filter1_d_17_111)">
<path d="M574.703 205.371C568.648 205.371 563.57 204.98 559.469 204.199C555.562 203.418 552.047 202.734 548.922 202.148C545.992 201.367 542.867 200.977 539.547 200.977C537.008 200.977 534.469 201.66 531.93 203.027C529.586 204.395 527.633 205.078 526.07 205.078C525.484 205.078 524.02 204.492 521.676 203.32C519.527 202.148 518.453 201.172 518.453 200.391C518.453 198.438 518.941 194.141 519.918 187.5C520.895 180.859 521.383 173.242 521.383 164.648V45.1172C521.383 37.6953 520.797 31.0547 519.625 25.1953C518.844 22.0703 513.766 20.5078 504.391 20.5078H501.754C500.582 20.5078 499.996 18.9453 499.996 15.8203C499.996 12.6953 500.582 11.1328 501.754 11.1328C507.809 10.5469 513.57 9.76562 519.039 8.78906C524.508 7.8125 529.098 6.83594 532.809 5.85938C537.887 4.29688 541.988 2.92969 545.113 1.75781C548.238 0.585938 549.996 0 550.387 0H550.973C551.754 0 552.535 0.585938 553.316 1.75781C554.098 2.73438 554.586 3.71094 554.781 4.6875C553.805 8.39844 553.023 12.5977 552.438 17.2852C551.852 21.7773 551.559 26.7578 551.559 32.2266V79.3945C551.559 81.1523 551.656 82.2266 551.852 82.6172C552.047 82.8125 552.535 82.8125 553.316 82.6172C556.051 80.6641 559.957 78.7109 565.035 76.7578C570.309 74.8047 575.289 73.8281 579.977 73.8281C592.281 73.8281 603.219 76.8555 612.789 82.9102C622.555 88.9648 629.879 96.7773 634.762 106.348C639.645 115.918 642.086 125.781 642.086 135.938C642.086 148.633 638.863 160.254 632.418 170.801C626.168 181.348 617.965 189.746 607.809 195.996C597.652 202.246 586.617 205.371 574.703 205.371ZM577.633 191.309C587.789 191.309 595.406 186.719 600.484 177.539C605.758 168.359 608.395 157.227 608.395 144.141C608.395 127.344 605.367 114.062 599.312 104.297C593.258 94.5312 584.664 89.6484 573.531 89.6484C567.086 89.6484 561.812 91.5039 557.711 95.2148C553.609 98.9258 551.559 103.32 551.559 108.398V170.508C551.559 177.344 554.098 182.52 559.176 186.035C564.449 189.551 570.602 191.309 577.633 191.309Z" fill="#F5F5F5"/>
</g>
<g filter="url(#filter2_d_17_111)">
<path d="M259.469 204.492C258.688 203.711 258.297 201.855 258.297 198.926C258.297 195.996 258.688 194.531 259.469 194.531C261.031 194.531 263.18 194.238 265.914 193.652C268.844 192.871 271.48 191.992 273.824 191.016C276.363 189.844 277.73 188.867 277.926 188.086C279.293 182.617 279.977 175.488 279.977 166.699V118.945C279.977 109.57 278.414 103.32 275.289 100.195C273.141 97.8516 270.699 96.2891 267.965 95.5078C265.426 94.7266 263.18 94.2383 261.227 94.043C259.469 93.8477 258.59 93.5547 258.59 93.1641C258.59 87.5 259.176 84.5703 260.348 84.375C264.84 83.9844 270.895 83.1055 278.512 81.7383C286.324 80.3711 294.625 78.6133 303.414 76.4648C307.32 75.4883 309.371 75 309.566 75C310.543 75 311.324 75.6836 311.91 77.0508C312.496 78.418 312.691 79.4922 312.496 80.2734C312.105 83.0078 311.812 85.2539 311.617 87.0117C311.422 88.7695 311.324 90.0391 311.324 90.8203C311.324 91.7969 311.52 92.2852 311.91 92.2852C312.301 92.2852 312.789 91.9922 313.375 91.4062C318.062 86.7188 324.02 82.6172 331.246 79.1016C338.668 75.5859 346.188 73.8281 353.805 73.8281C361.227 73.8281 367.574 75.7812 372.848 79.6875C378.121 83.3984 382.027 88.2812 384.566 94.3359C390.23 88.4766 397.359 83.5938 405.953 79.6875C414.547 75.7812 423.727 73.8281 433.492 73.8281C442.867 73.8281 450.289 76.4648 455.758 81.7383C461.227 86.8164 465.133 93.75 467.477 102.539C470.016 111.133 471.285 120.605 471.285 130.957V161.719C471.285 174.023 471.969 182.812 473.336 188.086C473.727 188.867 475.094 189.844 477.438 191.016C479.977 191.992 482.613 192.871 485.348 193.652C488.082 194.238 490.035 194.531 491.207 194.531C491.793 194.531 492.086 195.996 492.086 198.926C492.281 201.66 492.184 203.516 491.793 204.492C491.012 204.297 488.277 204.004 483.59 203.613C479.098 203.418 474.215 203.223 468.941 203.027C463.668 202.637 459.469 202.441 456.344 202.441C453.219 202.441 449.02 202.637 443.746 203.027C438.668 203.223 433.785 203.418 429.098 203.613C424.605 204.004 421.773 204.297 420.602 204.492C420.016 203.516 419.723 201.66 419.723 198.926C419.723 195.996 420.016 194.531 420.602 194.531C422.164 194.531 424.312 194.238 427.047 193.652C429.781 192.871 432.32 191.992 434.664 191.016C437.203 189.844 438.57 188.867 438.766 188.086C440.133 182.617 440.816 175.781 440.816 167.578V137.695C440.816 109.375 431.734 95.2148 413.57 95.2148C407.125 95.2148 401.852 96.7773 397.75 99.9023C393.648 103.027 391.109 106.055 390.133 108.984C390.133 111.523 390.23 113.77 390.426 115.723C390.621 117.48 390.719 121.094 390.719 126.562V162.891C390.719 168.359 390.816 173.242 391.012 177.539C391.402 181.836 391.988 185.352 392.77 188.086C393.16 188.867 394.527 189.844 396.871 191.016C399.41 191.992 402.047 192.871 404.781 193.652C407.516 194.238 409.469 194.531 410.641 194.531C411.227 194.531 411.52 195.996 411.52 198.926C411.715 201.66 411.617 203.516 411.227 204.492C410.445 204.297 407.711 204.004 403.023 203.613C398.531 203.418 393.648 203.223 388.375 203.027C383.102 202.637 378.902 202.441 375.777 202.441C372.652 202.441 368.453 202.637 363.18 203.027C358.102 203.223 353.219 203.418 348.531 203.613C344.039 204.004 341.207 204.297 340.035 204.492C339.449 203.516 339.156 201.66 339.156 198.926C339.156 195.996 339.449 194.531 340.035 194.531C341.598 194.531 343.746 194.238 346.48 193.652C349.215 192.871 351.754 191.992 354.098 191.016C356.637 189.844 358.004 188.867 358.199 188.086C359.566 182.617 360.25 175.488 360.25 166.699V138.574C360.25 123.34 358.004 112.305 353.512 105.469C349.02 98.6328 342.379 95.2148 333.59 95.2148C327.73 95.2148 322.359 96.875 317.477 100.195C312.594 103.516 310.152 107.227 310.152 111.328V161.719C310.152 173.438 310.934 182.227 312.496 188.086C312.887 188.867 314.254 189.844 316.598 191.016C318.941 191.992 321.383 192.871 323.922 193.652C326.656 194.238 328.609 194.531 329.781 194.531C330.562 194.531 330.953 195.996 330.953 198.926C331.148 201.66 331.051 203.516 330.66 204.492C329.684 204.297 326.852 204.004 322.164 203.613C317.672 203.418 312.887 203.223 307.809 203.027C302.73 202.637 298.629 202.441 295.504 202.441C292.379 202.441 288.082 202.637 282.613 203.027C277.34 203.223 272.457 203.418 267.965 203.613C263.473 204.004 260.641 204.297 259.469 204.492Z" fill="#F5F5F5"/>
</g>
<g filter="url(#filter3_d_17_111)">
<path d="M175.094 204.199C174.312 203.418 173.922 201.562 173.922 198.633C173.922 195.898 174.312 194.531 175.094 194.531C176.656 194.531 178.707 194.141 181.246 193.359C183.785 192.578 186.129 191.602 188.277 190.43C190.621 189.258 191.891 188.281 192.086 187.5C192.867 184.18 193.453 180.664 193.844 176.953C194.234 173.242 194.43 169.531 194.43 165.82V118.652C194.43 109.473 192.867 103.223 189.742 99.9023C187.984 97.7539 185.738 96.2891 183.004 95.5078C180.465 94.7266 178.121 94.2383 175.973 94.043C174.02 93.8477 173.043 93.5547 173.043 93.1641C173.043 87.3047 173.531 84.375 174.508 84.375C180.758 83.5938 187.594 82.5195 195.016 81.1523C202.633 79.5898 209.469 78.125 215.523 76.7578L224.898 74.4141C226.266 74.4141 226.949 76.3672 226.949 80.2734C226.949 82.8125 226.559 86.5234 225.777 91.4062C225.191 96.0938 224.898 100.781 224.898 105.469V161.133C224.898 173.438 225.582 182.227 226.949 187.5C227.34 188.281 228.609 189.258 230.758 190.43C232.906 191.602 235.25 192.578 237.789 193.359C240.328 194.141 242.086 194.531 243.062 194.531C243.648 194.531 243.941 195.898 243.941 198.633C244.137 201.367 244.039 203.223 243.648 204.199C237.594 203.809 231.441 203.418 225.191 203.027C218.941 202.637 213.766 202.441 209.664 202.441C203.609 202.441 197.359 202.637 190.914 203.027C184.664 203.418 179.391 203.809 175.094 204.199ZM207.32 43.9453C202.438 43.9453 198.238 42.1875 194.723 38.6719C191.207 35.1562 189.449 30.957 189.449 26.0742C189.449 21.1914 191.207 17.0898 194.723 13.7695C198.238 10.2539 202.438 8.49609 207.32 8.49609C212.203 8.49609 216.305 10.2539 219.625 13.7695C223.141 17.0898 224.898 21.1914 224.898 26.0742C224.898 30.957 223.141 35.1562 219.625 38.6719C216.305 42.1875 212.203 43.9453 207.32 43.9453Z" fill="#F5F5F5"/>
</g>
<g filter="url(#filter4_d_17_111)">
<path d="M4.87891 204.199C4.29297 203.613 4 202.051 4 199.512C4 196.191 4.29297 194.531 4.87891 194.531C6.63672 194.531 8.88281 194.238 11.6172 193.652C14.5469 193.066 17.2812 192.285 19.8203 191.309C22.5547 190.332 24.1172 189.258 24.5078 188.086C25.875 184.18 26.5586 175.293 26.5586 161.426V50.6836C26.5586 39.1602 25.7773 30.8594 24.2148 25.7812C23.8242 24.6094 22.3594 23.5352 19.8203 22.5586C17.4766 21.582 14.8398 20.8008 11.9102 20.2148C9.17578 19.4336 7.02734 19.043 5.46484 19.043C4.68359 19.043 4.29297 17.5781 4.29297 14.6484C4.29297 11.5234 4.48828 9.76562 4.87891 9.375L21.2852 10.2539C26.168 10.4492 30.4648 10.7422 34.1758 11.1328C38.082 11.3281 41.3047 11.3281 43.8438 11.1328L81.3438 9.375C81.9297 11.1328 82.2227 12.6953 82.2227 14.0625C82.2227 17.3828 81.832 19.043 81.0508 19.043C79.8789 19.043 77.8281 19.4336 74.8984 20.2148C71.9688 20.9961 69.1367 21.875 66.4023 22.8516C63.8633 23.8281 62.3984 24.8047 62.0078 25.7812C61.2266 28.9062 60.6406 32.6172 60.25 36.9141C59.8594 41.0156 59.6641 45.8984 59.6641 51.5625V161.719C59.6641 171.094 60.543 178.906 62.3008 185.156C63.082 187.695 69.7227 188.965 82.2227 188.965H93.0625C108.492 188.965 120.113 186.914 127.926 182.812C131.051 181.25 134.566 177.832 138.473 172.559C142.379 167.285 145.406 161.328 147.555 154.688C147.945 153.516 149.312 152.93 151.656 152.93C155.953 152.93 158.688 153.516 159.859 154.688L150.484 180.762C149.312 183.887 148.043 187.891 146.676 192.773C145.309 197.461 144.43 201.27 144.039 204.199C136.227 204.199 120.113 203.906 95.6992 203.32C83.3945 202.93 72.9453 202.734 64.3516 202.734C55.7578 202.734 48.9219 202.832 43.8438 203.027L4.87891 204.199Z" fill="#F5F5F5"/>
</g>
<path d="M282.904 120.883L289.149 90.5192C289.149 90.5192 265.88 99.6495 250.916 96.5716C235.952 93.4937 222.932 76.5381 222.932 76.5381L216.686 106.902C216.686 106.902 231.195 108.544 246.159 111.622C262.06 114.892 282.904 120.883 282.904 120.883Z" fill="#F5F5F5"/>
</g>
<defs>
<filter id="filter0_d_17_111" x="655.078" y="73.8281" width="140.715" height="139.543" filterUnits="userSpaceOnUse" color-interpolation-filters="sRGB">
<feFlood flood-opacity="0" result="BackgroundImageFix"/>
<feColorMatrix in="SourceAlpha" type="matrix" values="0 0 0 0 0 0 0 0 0 0 0 0 0 0 0 0 0 0 127 0" result="hardAlpha"/>
<feOffset dy="4"/>
<feGaussianBlur stdDeviation="2"/>
<feComposite in2="hardAlpha" operator="out"/>
<feColorMatrix type="matrix" values="0 0 0 0 0 0 0 0 0 0 0 0 0 0 0 0 0 0 0.25 0"/>
<feBlend mode="normal" in2="BackgroundImageFix" result="effect1_dropShadow_17_111"/>
<feBlend mode="normal" in="SourceGraphic" in2="effect1_dropShadow_17_111" result="shape"/>
</filter>
<filter id="filter1_d_17_111" x="495.996" y="0" width="150.09" height="213.371" filterUnits="userSpaceOnUse" color-interpolation-filters="sRGB">
<feFlood flood-opacity="0" result="BackgroundImageFix"/>
<feColorMatrix in="SourceAlpha" type="matrix" values="0 0 0 0 0 0 0 0 0 0 0 0 0 0 0 0 0 0 127 0" result="hardAlpha"/>
<feOffset dy="4"/>
<feGaussianBlur stdDeviation="2"/>
<feComposite in2="hardAlpha" operator="out"/>
<feColorMatrix type="matrix" values="0 0 0 0 0 0 0 0 0 0 0 0 0 0 0 0 0 0 0.25 0"/>
<feBlend mode="normal" in2="BackgroundImageFix" result="effect1_dropShadow_17_111"/>
<feBlend mode="normal" in="SourceGraphic" in2="effect1_dropShadow_17_111" result="shape"/>
</filter>
<filter id="filter2_d_17_111" x="254.297" y="73.8281" width="241.887" height="138.664" filterUnits="userSpaceOnUse" color-interpolation-filters="sRGB">
<feFlood flood-opacity="0" result="BackgroundImageFix"/>
<feColorMatrix in="SourceAlpha" type="matrix" values="0 0 0 0 0 0 0 0 0 0 0 0 0 0 0 0 0 0 127 0" result="hardAlpha"/>
<feOffset dy="4"/>
<feGaussianBlur stdDeviation="2"/>
<feComposite in2="hardAlpha" operator="out"/>
<feColorMatrix type="matrix" values="0 0 0 0 0 0 0 0 0 0 0 0 0 0 0 0 0 0 0.25 0"/>
<feBlend mode="normal" in2="BackgroundImageFix" result="effect1_dropShadow_17_111"/>
<feBlend mode="normal" in="SourceGraphic" in2="effect1_dropShadow_17_111" result="shape"/>
</filter>
<filter id="filter3_d_17_111" x="169.043" y="8.49609" width="78.9961" height="203.703" filterUnits="userSpaceOnUse" color-interpolation-filters="sRGB">
<feFlood flood-opacity="0" result="BackgroundImageFix"/>
<feColorMatrix in="SourceAlpha" type="matrix" values="0 0 0 0 0 0 0 0 0 0 0 0 0 0 0 0 0 0 127 0" result="hardAlpha"/>
<feOffset dy="4"/>
<feGaussianBlur stdDeviation="2"/>
<feComposite in2="hardAlpha" operator="out"/>
<feColorMatrix type="matrix" values="0 0 0 0 0 0 0 0 0 0 0 0 0 0 0 0 0 0 0.25 0"/>
<feBlend mode="normal" in2="BackgroundImageFix" result="effect1_dropShadow_17_111"/>
<feBlend mode="normal" in="SourceGraphic" in2="effect1_dropShadow_17_111" result="shape"/>
</filter>
<filter id="filter4_d_17_111" x="0" y="9.375" width="163.859" height="202.824" filterUnits="userSpaceOnUse" color-interpolation-filters="sRGB">
<feFlood flood-opacity="0" result="BackgroundImageFix"/>
<feColorMatrix in="SourceAlpha" type="matrix" values="0 0 0 0 0 0 0 0 0 0 0 0 0 0 0 0 0 0 127 0" result="hardAlpha"/>
<feOffset dy="4"/>
<feGaussianBlur stdDeviation="2"/>
<feComposite in2="hardAlpha" operator="out"/>
<feColorMatrix type="matrix" values="0 0 0 0 0 0 0 0 0 0 0 0 0 0 0 0 0 0 0.25 0"/>
<feBlend mode="normal" in2="BackgroundImageFix" result="effect1_dropShadow_17_111"/>
<feBlend mode="normal" in="SourceGraphic" in2="effect1_dropShadow_17_111" result="shape"/>
</filter>
<clipPath id="clip0_17_111">
<rect width="796" height="214" fill="white"/>
</clipPath>
</defs>
</svg>
